# xmcd
#
# Track frame offsets:
#  150
#  17295
#  40196
#  53828
#  75049
#  128292
#  151199
#
# Disc length: 2361 seconds
#
# Revision: 0
# Processed by: cddbd v1.5.1PL2 Copyright (c) Steve Scherf et al.
# Submitted via: Collectorz.com_Music_Collector 6.9
#
DISCID=35093707
DTITLE=Emmylou Harris - House Of Blues, Hollywood 25 June 1997 [CD2]
DYEAR=1998
DGENRE=Bootleg - Country Blues - Folk - Country
TTITLE0=Get Up John
TTITLE1=Tulsa Queen
TTITLE2=Wheels
TTITLE3=Born To Run
TTITLE4=The Maker
TTITLE5=Prayer In Open D
TTITLE6=Farther Along
EXTD=
EXTT0=
EXTT1=
EXTT2=
EXTT3=
EXTT4=
EXTT5=
EXTT6=
PLAYORDER=
